<?xml version="1.0" standalone="no"?>
<!DOCTYPE svg PUBLIC "-//W3C//DTD SVG 20010904//EN"
 "http://www.w3.org/TR/2001/REC-SVG-20010904/DTD/svg10.dtd">
<svg version="1.0" xmlns="http://www.w3.org/2000/svg"
 width="439.000000pt" height="356.000000pt" viewBox="0 0 439.000000 356.000000"
 preserveAspectRatio="xMidYMid meet">

<g transform="translate(0.000000,356.000000) scale(0.100000,-0.100000)"
fill="#F8F8F8" stroke="none">
<path d="M355 3452 c-108 -37 -200 -114 -246 -204 -50 -99 -49 -57 -49 -1478
0 -1463 -3 -1388 63 -1499 42 -69 106 -126 187 -165 l65 -31 1815 0 1815 0 65
31 c81 39 145 96 187 165 66 111 63 36 63 1499 0 1166 -2 1333 -16 1385 -31
123 -108 216 -222 273 l-76 37 -1800 2 c-1688 2 -1804 1 -1851 -15z m365 -555
c19 -7 355 -213 745 -457 391 -244 717 -444 725 -444 8 0 333 199 723 443 389
243 723 449 742 457 46 19 82 17 130 -5 146 -68 155 -237 16 -330 -31 -20
-385 -243 -786 -494 -480 -299 -747 -460 -778 -469 -38 -10 -56 -10 -94 0 -31
9 -298 169 -778 469 -892 558 -838 522 -864 576 -49 102 -3 214 105 252 48 17
69 18 114 2z"/>
</g>
</svg>
