<?xml version="1.0" standalone="no"?>
<!DOCTYPE svg PUBLIC "-//W3C//DTD SVG 20010904//EN"
 "http://www.w3.org/TR/2001/REC-SVG-20010904/DTD/svg10.dtd">
<svg version="1.0" xmlns="http://www.w3.org/2000/svg"
 width="466.000000pt" height="348.000000pt" viewBox="0 0 466.000000 348.000000"
 preserveAspectRatio="xMidYMid meet">

<g transform="translate(0.000000,348.000000) scale(0.100000,-0.100000)"
fill="#F8F8F8" stroke="none">
<path d="M185 3379 c-88 -44 -135 -120 -135 -219 0 -100 45 -175 135 -223 l40
-22 1183 -3 1183 -2 9 -26 c7 -16 9 -397 8 -1032 l-3 -1007 -253 -3 -253 -2
-63 63 c-117 119 -278 174 -433 148 -141 -24 -269 -108 -339 -222 l-37 -59
-77 0 c-46 0 -83 5 -92 13 -12 9 -17 37 -20 122 -4 92 -8 119 -29 159 -103
207 -412 165 -460 -63 -17 -80 -6 -269 20 -352 42 -134 146 -252 275 -313 94
-45 153 -56 298 -56 l121 0 66 -64 c106 -101 212 -146 352 -146 136 0 261 53
354 151 l56 59 546 0 546 0 71 -68 c106 -101 206 -142 347 -142 135 0 261 53
353 150 l54 57 84 6 c144 10 258 64 359 170 55 58 112 166 128 245 7 34 11
215 11 495 l0 442 -121 425 c-67 234 -133 448 -146 476 -78 160 -228 267 -411
294 -37 5 -235 10 -439 10 l-373 0 0 43 c0 65 -36 192 -72 255 -42 74 -130
160 -203 199 -128 67 -42 63 -1384 63 -1191 -1 -1217 -1 -1256 -21z m3690
-1049 c4 -6 56 -183 116 -393 l109 -382 0 -377 c0 -329 -2 -379 -16 -392 -23
-24 -30 -20 -64 35 -103 168 -311 263 -499 230 -106 -19 -202 -70 -277 -146
-58 -59 -68 -65 -104 -65 l-40 0 0 750 0 750 384 0 c255 0 387 -4 391 -10z
m-2122 -1647 c46 -23 69 -70 64 -131 -7 -103 -108 -161 -203 -116 -66 31 -95
123 -61 190 40 78 117 100 200 57z m1920 0 c46 -23 69 -70 64 -131 -7 -103
-108 -161 -203 -116 -66 31 -95 123 -61 190 40 78 117 100 200 57z"/>
<path d="M525 2601 c-72 -32 -125 -113 -125 -190 0 -81 72 -180 146 -200 25
-7 172 -11 394 -11 323 0 359 2 395 19 88 40 129 110 123 207 -5 78 -41 136
-107 171 -44 23 -46 23 -415 23 -337 0 -375 -2 -411 -19z"/>
<path d="M385 1891 c-168 -78 -164 -314 7 -385 31 -13 84 -16 295 -16 292 0
312 5 371 75 86 105 50 271 -72 326 -37 17 -69 19 -301 19 -232 0 -264 -2
-300 -19z"/>
</g>
</svg>
