<?xml version="1.0" standalone="no"?>
<!DOCTYPE svg PUBLIC "-//W3C//DTD SVG 20010904//EN"
 "http://www.w3.org/TR/2001/REC-SVG-20010904/DTD/svg10.dtd">
<svg version="1.0" xmlns="http://www.w3.org/2000/svg"
 width="256.000000pt" height="256.000000pt" viewBox="0 0 256.000000 256.000000"
 preserveAspectRatio="xMidYMid meet">

<g transform="translate(0.000000,256.000000) scale(0.100000,-0.100000)"
fill="#000000" stroke="none">
<path d="M520 2541 c-105 -37 -173 -145 -172 -275 1 -83 24 -137 82 -189 75
-67 152 -90 325 -95 280 -7 468 67 482 190 4 37 0 50 -29 92 -59 89 -254 215
-407 265 -97 32 -213 36 -281 12z m188 -186 c100 -24 307 -136 285 -155 -16
-14 -128 -30 -218 -30 -96 0 -186 20 -217 48 -34 29 -17 125 24 142 32 13 54
12 126 -5z"/>
<path d="M1848 2550 c-200 -36 -455 -195 -510 -318 -49 -108 47 -197 251 -236
97 -19 286 -21 363 -5 113 24 205 87 245 169 26 51 23 170 -5 233 -32 73 -56
100 -111 131 -57 30 -151 41 -233 26z m139 -195 c13 -9 27 -34 34 -57 9 -36 8
-44 -9 -67 -26 -36 -81 -53 -186 -59 -89 -5 -252 13 -261 28 -13 22 199 136
289 155 82 18 107 18 133 0z"/>
<path d="M145 1883 c-38 -10 -75 -44 -85 -81 -7 -23 -10 -113 -8 -244 3 -191
5 -209 24 -235 11 -15 36 -33 55 -40 45 -16 1001 -18 1030 -3 18 10 19 24 19
293 0 160 -4 288 -10 297 -8 13 -77 15 -507 16 -274 1 -507 0 -518 -3z"/>
<path d="M1398 1879 c-17 -9 -18 -34 -18 -300 l0 -289 26 -10 c39 -15 980 -12
1023 3 19 7 44 25 55 40 19 26 21 44 24 235 4 234 -2 269 -51 304 l-32 23
-505 2 c-336 2 -511 -1 -522 -8z"/>
<path d="M280 1133 c-39 -12 -63 -30 -76 -55 -11 -22 -14 -114 -14 -516 l0
-489 25 -27 c13 -14 36 -31 50 -36 16 -6 200 -10 465 -10 390 0 439 2 444 16
3 9 6 258 6 554 0 476 -2 540 -16 554 -14 14 -67 16 -442 15 -235 0 -434 -3
-442 -6z"/>
<path d="M1396 1125 c-14 -15 -16 -73 -16 -555 0 -296 3 -545 6 -554 5 -14 54
-16 444 -16 265 0 449 4 465 10 14 5 37 22 50 36 l25 27 0 488 c0 348 -3 495
-12 513 -6 14 -23 34 -37 43 -24 16 -65 18 -467 21 -395 2 -443 1 -458 -13z"/>
</g>
</svg>
