<?xml version="1.0" encoding="UTF-8"?>
<!DOCTYPE svg PUBLIC "-//W3C//DTD SVG 1.1//EN" "http://www.w3.org/Graphics/SVG/1.1/DTD/svg11.dtd">
<svg xmlns="http://www.w3.org/2000/svg" version="1.1" width="500px" height="500px" style="shape-rendering:geometricPrecision; text-rendering:geometricPrecision; image-rendering:optimizeQuality; fill-rule:evenodd; clip-rule:evenodd" xmlns:xlink="http://www.w3.org/1999/xlink">
<g><path style="opacity:1" fill="#fefefe" d="M -0.5,-0.5 C 166.167,-0.5 332.833,-0.5 499.5,-0.5C 499.5,166.167 499.5,332.833 499.5,499.5C 332.833,499.5 166.167,499.5 -0.5,499.5C -0.5,332.833 -0.5,166.167 -0.5,-0.5 Z"/></g>
<g><path style="opacity:1" fill="#131313" d="M 271.5,147.5 C 267.298,147.817 263.298,147.483 259.5,146.5C 264.877,145.895 269.377,143.561 273,139.5C 274.116,131.552 271.116,129.552 264,133.5C 261.274,137.619 259.107,141.952 257.5,146.5C 254.993,147.898 252.66,147.564 250.5,145.5C 249.599,140.531 247.265,136.364 243.5,133C 236.184,130.056 233.351,132.556 235,140.5C 238.985,144.577 243.819,146.577 249.5,146.5C 245.03,147.486 240.363,147.819 235.5,147.5C 229.788,144.173 227.955,139.173 230,132.5C 234.564,125.888 240.398,124.721 247.5,129C 250.087,131.913 252.254,135.08 254,138.5C 256.702,133.921 260.202,130.088 264.5,127C 274.835,125.057 279.668,129.224 279,139.5C 277.623,143.279 275.123,145.946 271.5,147.5 Z"/></g>
<g><path style="opacity:1" fill="#f1f1f1" d="M 250.5,145.5 C 250.5,146.167 250.167,146.5 249.5,146.5C 243.819,146.577 238.985,144.577 235,140.5C 233.351,132.556 236.184,130.056 243.5,133C 247.265,136.364 249.599,140.531 250.5,145.5 Z"/></g>
<g><path style="opacity:1" fill="#efefef" d="M 259.5,146.5 C 258.833,146.5 258.167,146.5 257.5,146.5C 259.107,141.952 261.274,137.619 264,133.5C 271.116,129.552 274.116,131.552 273,139.5C 269.377,143.561 264.877,145.895 259.5,146.5 Z"/></g>
<g><path style="opacity:1" fill="#6a6a6a" d="M 250.5,145.5 C 252.66,147.564 254.993,147.898 257.5,146.5C 258.167,146.5 258.833,146.5 259.5,146.5C 263.298,147.483 267.298,147.817 271.5,147.5C 259.5,148.833 247.5,148.833 235.5,147.5C 240.363,147.819 245.03,147.486 249.5,146.5C 250.167,146.5 250.5,146.167 250.5,145.5 Z"/></g>
<g><path style="opacity:1" fill="#ffb98d" d="M 241.5,164.5 C 243.167,163.167 244.833,163.167 246.5,164.5C 246.5,165.167 246.167,165.5 245.5,165.5C 244.833,165.5 244.167,165.5 243.5,165.5C 243.158,164.662 242.492,164.328 241.5,164.5 Z"/></g>
<g><path style="opacity:1" fill="#ff7929" d="M 219.5,164.5 C 225.113,163.079 227.28,165.079 226,170.5C 219.423,173.088 217.256,171.088 219.5,164.5 Z"/></g>
<g><path style="opacity:1" fill="#ff7725" d="M 241.5,164.5 C 242.492,164.328 243.158,164.662 243.5,165.5C 242.883,165.611 242.383,165.944 242,166.5C 241.502,169.817 241.335,173.15 241.5,176.5C 241.5,177.167 241.5,177.833 241.5,178.5C 241.334,185.508 241.5,192.508 242,199.5C 242.383,200.056 242.883,200.389 243.5,200.5C 240.167,201.833 236.833,201.833 233.5,200.5C 234.33,190.675 234.83,180.675 235,170.5C 236.406,167.591 238.572,165.591 241.5,164.5 Z"/></g>
<g><path style="opacity:1" fill="#ff7e31" d="M 246.5,164.5 C 248.062,164.733 249.395,165.4 250.5,166.5C 250.483,168.565 250.15,170.565 249.5,172.5C 243.73,172.431 242.397,170.097 245.5,165.5C 246.167,165.5 246.5,165.167 246.5,164.5 Z"/></g>
<g><path style="opacity:1" fill="#ff7c2d" d="M 268.5,164.5 C 270.527,164.338 272.527,164.505 274.5,165C 277.167,167 277.167,169 274.5,171C 268.086,172.755 266.086,170.589 268.5,164.5 Z"/></g>
<g><path style="opacity:1" fill="#ff7725" d="M 290.5,164.5 C 293.001,164.511 293.168,165.178 291,166.5C 290.174,177.674 290.341,188.674 291.5,199.5C 291.5,200.167 291.833,200.5 292.5,200.5C 289.167,201.833 285.833,201.833 282.5,200.5C 283.33,191.009 283.83,181.342 284,171.5C 284.985,168.017 287.151,165.684 290.5,164.5 Z"/></g>
<g><path style="opacity:1" fill="#ff7b2b" d="M 295.5,164.5 C 299.146,165.462 300.313,167.795 299,171.5C 296.765,172.98 294.932,172.647 293.5,170.5C 293.614,168.282 294.28,166.282 295.5,164.5 Z"/></g>
<g><path style="opacity:1" fill="#fff6f1" d="M 243.5,165.5 C 244.167,165.5 244.833,165.5 245.5,165.5C 242.397,170.097 243.73,172.431 249.5,172.5C 250.434,173.568 250.768,174.901 250.5,176.5C 247.5,176.5 244.5,176.5 241.5,176.5C 241.335,173.15 241.502,169.817 242,166.5C 242.383,165.944 242.883,165.611 243.5,165.5 Z"/></g>
<g><path style="opacity:1" fill="#ff7d30" d="M 195.5,167.5 C 196.492,167.328 197.158,167.662 197.5,168.5C 191.246,172.189 188.913,177.689 190.5,185C 190.442,189.253 190.942,193.42 192,197.5C 193.451,199.464 195.284,200.797 197.5,201.5C 196.432,202.434 195.099,202.768 193.5,202.5C 185.181,199.711 181.181,193.878 181.5,185C 181.543,175.458 186.209,169.625 195.5,167.5 Z"/></g>
<g><path style="opacity:1" fill="#ff7c2e" d="M 255.5,169.5 C 256.5,169.5 257.5,169.5 258.5,169.5C 258.5,171.833 258.5,174.167 258.5,176.5C 258.5,177.167 258.5,177.833 258.5,178.5C 258.5,185.833 258.5,193.167 258.5,200.5C 260.903,200.607 262.736,199.607 264,197.5C 263.552,201.093 261.385,202.76 257.5,202.5C 254.136,203.128 252.136,201.795 251.5,198.5C 251.5,189.167 251.5,179.833 251.5,170.5C 253.099,170.768 254.432,170.434 255.5,169.5 Z"/></g>
<g><path style="opacity:1" fill="#ffa46d" d="M 195.5,167.5 C 199.765,166.278 203.932,166.945 208,169.5C 208.95,168.978 209.784,168.311 210.5,167.5C 211.833,171.5 211.833,175.5 210.5,179.5C 209.525,171.858 205.191,168.191 197.5,168.5C 197.158,167.662 196.492,167.328 195.5,167.5 Z"/></g>
<g><path style="opacity:1" fill="#ff9655" d="M 226.5,198.5 C 225.509,191.687 225.175,184.687 225.5,177.5C 222.615,177.194 219.948,177.527 217.5,178.5C 216.957,178.44 216.624,178.107 216.5,177.5C 219.768,176.513 223.102,176.18 226.5,176.5C 226.5,183.833 226.5,191.167 226.5,198.5 Z"/></g>
<g><path style="opacity:1" fill="#ffb486" d="M 273.5,176.5 C 271.167,177.167 268.833,177.833 266.5,178.5C 265.957,178.44 265.624,178.107 265.5,177.5C 268.086,176.52 270.753,176.187 273.5,176.5 Z"/></g>
<g><path style="opacity:1" fill="#ffccad" d="M 290.5,164.5 C 292.167,163.167 293.833,163.167 295.5,164.5C 294.28,166.282 293.614,168.282 293.5,170.5C 292.732,169.737 292.232,168.737 292,167.5C 291.502,170.482 291.335,173.482 291.5,176.5C 297.206,176.171 302.872,176.505 308.5,177.5C 308.043,178.298 307.376,178.631 306.5,178.5C 303.167,177.167 299.833,177.167 296.5,178.5C 294.833,178.5 293.167,178.5 291.5,178.5C 291.5,185.5 291.5,192.5 291.5,199.5C 290.341,188.674 290.174,177.674 291,166.5C 293.168,165.178 293.001,164.511 290.5,164.5 Z"/></g>
<g><path style="opacity:1" fill="#ffbd95" d="M 320.5,178.5 C 318.5,177.167 316.5,177.167 314.5,178.5C 313.624,178.631 312.957,178.298 312.5,177.5C 315.5,176.167 318.5,176.167 321.5,177.5C 321.376,178.107 321.043,178.44 320.5,178.5 Z"/></g>
<g><path style="opacity:1" fill="#ff7520" d="M 217.5,178.5 C 219.948,177.527 222.615,177.194 225.5,177.5C 225.175,184.687 225.509,191.687 226.5,198.5C 226.328,199.492 226.662,200.158 227.5,200.5C 224.5,201.833 221.5,201.833 218.5,200.5C 219.655,193.679 219.821,186.679 219,179.5C 218.617,178.944 218.117,178.611 217.5,178.5 Z"/></g>
<g><path style="opacity:1" fill="#ffbe97" d="M 250.5,166.5 C 251.404,167.209 251.737,168.209 251.5,169.5C 252.833,169.5 254.167,169.5 255.5,169.5C 254.432,170.434 253.099,170.768 251.5,170.5C 251.5,179.833 251.5,189.167 251.5,198.5C 250.509,192.021 250.176,185.354 250.5,178.5C 247.5,178.5 244.5,178.5 241.5,178.5C 241.5,177.833 241.5,177.167 241.5,176.5C 244.5,176.5 247.5,176.5 250.5,176.5C 250.768,174.901 250.434,173.568 249.5,172.5C 250.15,170.565 250.483,168.565 250.5,166.5 Z"/></g>
<g><path style="opacity:1" fill="#ffb68a" d="M 258.5,176.5 C 265.167,177.167 265.167,177.833 258.5,178.5C 258.5,177.833 258.5,177.167 258.5,176.5 Z"/></g>
<g><path style="opacity:1" fill="#ff7826" d="M 273.5,176.5 C 275.154,184.281 276.154,192.281 276.5,200.5C 273.5,201.833 270.5,201.833 267.5,200.5C 268.655,193.679 268.821,186.679 268,179.5C 267.617,178.944 267.117,178.611 266.5,178.5C 268.833,177.833 271.167,177.167 273.5,176.5 Z"/></g>
<g><path style="opacity:1" fill="#ff7a29" d="M 296.5,178.5 C 299.833,177.167 303.167,177.167 306.5,178.5C 307.716,184.021 309.549,189.354 312,194.5C 312.608,192.934 313.442,191.6 314.5,190.5C 313.454,194.924 312.121,199.257 310.5,203.5C 309.833,203.5 309.167,203.5 308.5,203.5C 305.686,196.532 302.853,189.532 300,182.5C 299.34,180.676 298.173,179.343 296.5,178.5 Z"/></g>
<g><path style="opacity:1" fill="#ff8a43" d="M 314.5,178.5 C 316.5,177.167 318.5,177.167 320.5,178.5C 318.205,182.322 316.205,186.322 314.5,190.5C 315.058,187.656 315.725,184.822 316.5,182C 316.613,180.301 315.947,179.134 314.5,178.5 Z"/></g>
<g><path style="opacity:1" fill="#ff7a2a" d="M 203.5,201.5 C 203.5,201.167 203.5,200.833 203.5,200.5C 203.665,196.818 203.499,193.152 203,189.5C 201.933,188.809 200.766,188.309 199.5,188C 204.167,187.333 208.833,187.333 213.5,188C 211.761,192.192 210.928,196.692 211,201.5C 210.612,200.572 209.945,199.905 209,199.5C 207.2,200.32 205.366,200.986 203.5,201.5 Z"/></g>
<g><path style="opacity:1" fill="#ffab78" d="M 218.5,200.5 C 221.5,201.833 224.5,201.833 227.5,200.5C 228.289,200.783 228.956,201.283 229.5,202C 225.129,202.828 220.795,202.661 216.5,201.5C 216.957,200.702 217.624,200.369 218.5,200.5 Z"/></g>
<g><path style="opacity:1" fill="#ffab77" d="M 233.5,200.5 C 236.833,201.833 240.167,201.833 243.5,200.5C 244.289,200.783 244.956,201.283 245.5,202C 240.833,202.667 236.167,202.667 231.5,202C 232.044,201.283 232.711,200.783 233.5,200.5 Z"/></g>
<g><path style="opacity:1" fill="#ffab79" d="M 267.5,200.5 C 270.5,201.833 273.5,201.833 276.5,200.5C 277.289,200.783 277.956,201.283 278.5,202C 274.129,202.828 269.795,202.661 265.5,201.5C 265.957,200.702 266.624,200.369 267.5,200.5 Z"/></g>
<g><path style="opacity:1" fill="#ffac79" d="M 282.5,200.5 C 285.833,201.833 289.167,201.833 292.5,200.5C 293.473,200.987 294.473,201.487 295.5,202C 290.467,202.829 285.467,202.662 280.5,201.5C 280.957,200.702 281.624,200.369 282.5,200.5 Z"/></g>
<g><path style="opacity:1" fill="#ffc19a" d="M 203.5,200.5 C 203.5,200.833 203.5,201.167 203.5,201.5C 201.883,202.972 199.883,203.639 197.5,203.5C 195.955,203.489 194.622,203.156 193.5,202.5C 195.099,202.768 196.432,202.434 197.5,201.5C 199.621,201.675 201.621,201.341 203.5,200.5 Z"/></g>
<g><path style="opacity:1" fill="#ff8034" d="M 298.5,204.5 C 300.527,204.338 302.527,204.505 304.5,205C 305.833,206.333 305.833,207.667 304.5,209C 302.19,209.497 299.857,209.663 297.5,209.5C 297.366,207.708 297.699,206.042 298.5,204.5 Z"/></g>
<g><path style="opacity:1" fill="#ffb182" d="M 308.5,203.5 C 309.167,203.5 309.833,203.5 310.5,203.5C 310.09,205.854 309.09,207.854 307.5,209.5C 307.167,209.333 306.833,209.167 306.5,209C 307.861,207.416 308.528,205.582 308.5,203.5 Z"/></g>
<g><path style="opacity:1" fill="#040404" d="M 255.5,222.5 C 267.833,222.5 280.167,222.5 292.5,222.5C 292.5,228.833 292.5,235.167 292.5,241.5C 280.167,241.5 267.833,241.5 255.5,241.5C 255.5,235.167 255.5,228.833 255.5,222.5 Z"/></g>
<g><path style="opacity:1" fill="#040404" d="M 216.5,222.5 C 228.833,222.5 241.167,222.5 253.5,222.5C 253.5,228.833 253.5,235.167 253.5,241.5C 241.167,241.5 228.833,241.5 216.5,241.5C 216.5,235.167 216.5,228.833 216.5,222.5 Z"/></g>
</svg>
