<?xml version="1.0" standalone="no"?>
<!DOCTYPE svg PUBLIC "-//W3C//DTD SVG 20010904//EN"
 "http://www.w3.org/TR/2001/REC-SVG-20010904/DTD/svg10.dtd">
<svg version="1.0" xmlns="http://www.w3.org/2000/svg"
 width="159.000000pt" height="138.000000pt" viewBox="0 0 159.000000 138.000000"
 preserveAspectRatio="xMidYMid meet">

<g transform="translate(0.000000,138.000000) scale(0.100000,-0.100000)"
fill="#000000" stroke="none">
<path d="M569 1211 c-25 -25 -29 -37 -29 -81 0 -45 4 -56 31 -81 l31 -29 178
0 c167 0 179 1 205 22 58 45 66 122 18 174 -21 23 -30 26 -74 22 -56 -6 -79
-23 -117 -87 -16 -27 -28 -39 -30 -30 -9 31 -57 91 -83 105 -47 24 -97 18
-130 -15z m125 -54 c30 -33 63 -103 53 -114 -11 -10 -87 9 -119 31 -38 25 -49
73 -23 100 25 25 55 19 89 -17z m282 8 c15 -23 15 -27 0 -50 -9 -14 -27 -32
-41 -41 -34 -22 -115 -46 -115 -33 0 6 14 36 31 69 44 81 94 103 125 55z"/>
<path d="M408 184 c-2 -60 1 -98 7 -101 6 -2 89 -2 185 -1 l175 3 3 98 3 97
-185 0 -185 0 -3 -96z"/>
<path d="M802 183 l3 -98 183 -3 182 -2 0 100 0 100 -185 0 -186 0 3 -97z"/>
</g>
</svg>
